<?xml version="1.0" encoding="UTF-8" standalone="no"?>

<svg
   height="100%"
   stroke-miterlimit="10"
   style="fill-rule:nonzero;clip-rule:evenodd;stroke-linecap:round;stroke-linejoin:round;"
   version="1.1"
   viewBox="0 0 1300 1210"
   width="100%"
   xml:space="preserve"
   id="svg51"
   sodipodi:docname="logo.svg"
   inkscape:version="1.2.2 (b0a8486541, 2022-12-01)"
   inkscape:export-filename="logo.png"
   inkscape:export-xdpi="36.923077"
   inkscape:export-ydpi="36.923077"
   xmlns:inkscape="http://www.inkscape.org/namespaces/inkscape"
   xmlns:sodipodi="http://sodipodi.sourceforge.net/DTD/sodipodi-0.dtd"
   xmlns="http://www.w3.org/2000/svg"
   xmlns:svg="http://www.w3.org/2000/svg"><sodipodi:namedview
   id="namedview53"
   pagecolor="#ffffff"
   bordercolor="#000000"
   borderopacity="0.25"
   inkscape:showpageshadow="2"
   inkscape:pageopacity="0.0"
   inkscape:pagecheckerboard="0"
   inkscape:deskcolor="#d1d1d1"
   showgrid="false"
   inkscape:zoom="0.52975207"
   inkscape:cx="521.94228"
   inkscape:cy="605"
   inkscape:window-width="1322"
   inkscape:window-height="850"
   inkscape:window-x="0"
   inkscape:window-y="0"
   inkscape:window-maximized="1"
   inkscape:current-layer="svg51" />
<defs
   id="defs2">
</defs>
<path
   d="m 623,8 c -28.012,50.3147 -67.715,107.926 -34.139,165 4.697,7.983 12.565,18.456 21.509,25.924 5.018,4.191 16.117,10.202 16.117,10.202 0,0 15.175,-9.433 21.513,-12.265 14.158,-6.327 26.604,-9.179 42,-8.861 4.95,-36.758 17.682,-74.184 -0.27,-110 C 681.817,62.2126 668.37,47.4308 655.999,35 646.852,25.808 635.619,12.1854 623,8 Z"
   fill="#6d9b3c"
   fill-rule="nonzero"
   opacity="1"
   stroke="none"
   id="path4"
   style="fill:#dcdcdc;fill-opacity:1" /><path
   d="m 704,50 v 1 c 9.548,7.0322 14.195,19.6547 19.245,30 1.756,3.5979 7.173,13.3966 7.173,13.3966 0,0 17.2,0.6034 23.582,0.6034 h 59 209 97 c 8.51,0 37.82,0.6816 37.82,0.6816 0,0 0.18,20.7674 0.18,26.3184 v 402 c 17.18,-2.183 29,0.346 45,7 V 50 Z"
   fill="#6d9b3c"
   fill-rule="nonzero"
   opacity="1"
   stroke="none"
   id="path6" /><path
   d="m 88,51 v 470 c 16.26,0 29.346,3.19 44,10 l 1,-436 h 418 c 2.467,-16.7042 12.35,-30.1072 21,-44 z"
   fill="#6d9b3c"
   fill-rule="nonzero"
   opacity="1"
   stroke="none"
   id="path8" /><path
   d="M 909,126.439 C 846.111,136.237 799.738,181.282 782.095,242 c -1.897,6.528 -0.805,7.628 -0.805,7.628 0,0 13.448,14.021 16.246,29.372 2.239,12.287 -6.659,35.337 -6.659,35.337 l 11.644,13.899 c 0,0 27.967,-12.229 38.479,-17.927 38.559,-20.904 76.167,-51.775 83.753,-97.309 3.421,-20.535 5.347,-41.195 5.246,-62 -0.029,-5.972 -4.084,-25.267 -4.084,-25.267 0,0 -12.78,0.062 -16.915,0.706 z"
   fill="#6d9b3c"
   fill-rule="nonzero"
   opacity="1"
   stroke="none"
   id="path10"
   style="fill:#f59fb8;fill-opacity:1" /><path
   d="m 376,154 c -4.188,53.065 -5.739,127.193 48,156.688 10.813,5.935 22.93,9.424 35,11.701 20.681,3.9 40.343,1.244 61,-0.389 0,-31.631 1.18,-66.541 -12.309,-96 C 487.056,180.932 423.377,154 376,154 Z"
   fill="#6d9b3c"
   fill-rule="nonzero"
   opacity="1"
   stroke="none"
   id="path12"
   style="fill:#f5a9b8;fill-opacity:1" /><path
   d="m 743.219,348.05 c 10.155,-9.106 14.912,-18.334 18.086,-27.05 9.953,-27.328 7.946,-61.906 -9.144,-86.015 C 747.956,229.053 742.493,225.982 737,221.617 676.596,173.622 591.769,262.122 628.454,324 c 15.941,26.889 52.691,39.63 82.546,35.127 9.146,-1.38 22.064,-1.972 32.219,-11.077 z"
   fill="#dda918"
   fill-rule="nonzero"
   opacity="1"
   stroke="none"
   id="path14" /><path
   d="m 1038.15,223.579 c 0,0 -26.49,11.061 -36.15,16.571 -41.063,23.428 -65,54.632 -65,102.85 0,23.543 2.353,45.329 12.309,67 2.282,4.968 11.895,18.181 11.895,18.181 0,0 26.802,-15.376 35.796,-22.3 36.28,-27.923 60.08,-59.138 60,-105.881 -0.03,-19.841 -4.63,-40.288 -11,-59 -2.06,-6.038 -7.85,-17.421 -7.85,-17.421 z"
   fill="#6d9b3c"
   fill-rule="nonzero"
   opacity="1"
   stroke="none"
   id="path16"
   style="fill:#5bcefa;fill-opacity:1" /><path
   d="m 588.954,261.913 c 0,0 -5.092,7.215 -6.645,10.087 -5.099,9.426 -9.794,19.16 -14.028,29 -21.13,49.113 -20.984,106.93 32.719,134.244 8.229,4.185 38.014,13.845 38.014,13.845 0,0 7.616,-12.718 9.382,-17.089 5.797,-14.354 7.742,-55.949 7.742,-55.949 0,0 -23.923,-9.84 -30.138,-14.08 -18.44,-12.579 -26.395,-29.502 -29.573,-50.971 -2.141,-14.469 1.765,-43.478 1.765,-43.478 z"
   fill="#6d9b3c"
   fill-rule="nonzero"
   opacity="1"
   stroke="none"
   id="path18"
   style="fill:#ffee00;fill-opacity:1" /><path
   d="m 228,324 c -1.992,10.73 -1,22.116 -1,33 0,40.518 6.674,84.867 48,103.138 24.431,10.802 48.414,7.39 74,6.862 1.759,-9.476 0.455,-18.516 0.039,-28 -0.913,-20.851 -2.515,-45.22 -14.813,-63 C 311.176,342.676 266.713,327.056 228,324 Z"
   fill="#6d9b3c"
   fill-rule="nonzero"
   opacity="1"
   stroke="none"
   id="path20"
   style="fill:#5bcefa;fill-opacity:1" /><path
   d="m 831.292,357.539 c 0,0 -26.04,13.267 -35.292,19.462 -16.829,11.269 -35.768,25.18 -46.123,42.999 -10.678,18.374 -11.679,45.297 -9.707,66 2.079,21.836 7.494,43.71 15.841,64 1.771,4.306 9.13,18.845 9.13,18.845 0,0 28.474,-17.262 37.859,-24.496 33.01,-25.446 68.934,-58.292 66.961,-103.349 -1.034,-23.608 -11.309,-46.861 -24.682,-66 -3.632,-5.197 -13.987,-17.461 -13.987,-17.461 z"
   fill="#6d9b3c"
   fill-rule="nonzero"
   opacity="1"
   stroke="none"
   id="path22"
   style="fill:#028121;fill-opacity:1" /><path
   d="m 440,388.424 c -13.156,1.749 -26.196,3.713 -39,7.322 -3.56,1.004 -14.697,5.961 -14.697,5.961 0,0 2.015,8.059 2.824,11.293 2.63,10.523 5.428,20.823 9.192,31 9.82,26.558 24.451,58.491 52.681,69.536 15.031,5.881 32.301,5.182 48,3.178 18.524,-2.364 37.03,-8.334 53.999,-16.02 3.875,-1.754 17.215,-8.813 17.215,-8.813 0,0 -2.218,-8.018 -3.267,-10.881 -3.24,-8.839 -7.208,-17.371 -10.947,-26 -7.207,-16.631 -17.839,-35.909 -32,-47.535 -21.065,-17.295 -57.544,-22.557 -84,-19.041 z"
   fill="#6d9b3c"
   fill-rule="nonzero"
   opacity="1"
   stroke="none"
   id="path24"
   style="fill:#ff8d00;fill-opacity:1" /><path
   d="m 668,401 c 2.187,27.708 -7.023,55.141 -3.714,83 5.942,50.036 25.46,98.418 27.675,149 1.089,24.871 -8.999,47.388 -7.922,72 1.167,26.654 14.392,50.909 16.79,77 0.896,9.74 -1.625,20.31 -2.663,30 -2.003,18.695 -4.448,37.771 -9.166,56 -18.143,-6.694 -41.839,-27.28 -49.815,-45 -3.869,-8.597 -2.386,-18.199 -6.571,-27 -4.615,-9.706 -11.24,-18.296 -15.833,-28 -8.612,-18.194 -15.304,-37.475 -23.208,-56 -9.072,-21.261 -16.888,-38.703 -18.484,-62 -0.893,-13.043 -0.672,-27.072 1.211,-40 1.886,-12.94 5.854,-22.188 -0.19,-35 -5.573,-11.813 -17.195,-17.079 -25.106,-27 -5.957,-7.47 -12.442,-22.259 -22.004,-25 2.504,8.508 9.107,15.29 14.29,22.286 8.435,11.385 17.378,23.838 23.387,36.714 8.12,17.401 -5.829,24.291 -7.506,41 -1.656,16.495 4.575,34.238 8.713,50 1.846,7.03 5.787,17.868 2.964,24.981 -3.251,8.192 -11.658,2.563 -17.848,2.019 4.214,15.47 24.841,25.836 34.409,38.17 11.682,15.058 16.787,43.095 17.591,61.83 -18.32,-4.74 -37.806,-3.849 -56,-8.375 -20.196,-5.024 -37.063,-17.436 -56,-25.277 -8.894,-3.682 -18.915,-1.66 -28,-4.897 -14.538,-5.179 -30.647,-15.938 -44,-23.904 -10.302,-6.146 -13.773,-15.645 -22.015,-23.454 -7.118,-6.743 -16.837,-10.25 -23.685,-17.277 -5.825,-5.978 -9.461,-14.158 -17.3,-17.816 2.991,16.778 19.079,35.557 31,46.961 6.174,5.906 13.649,10.532 18,18.039 -9.573,3.489 -18.233,-0.241 -28,-0.911 -12.031,-0.824 -23.986,0.911 -36,0.911 3.598,5.71 12.968,5 19,5 15.42,10e-4 31.926,-0.482 47,3.13 30.76,7.372 56.956,28.45 87,38.351 26.973,8.888 57.782,7.632 84,17.585 14.481,5.497 28.975,16.793 33.652,31.934 3.275,10.602 0.413,21.219 8.442,30 23.187,25.359 59.084,34.899 74.583,68 8.793,18.779 5.983,39.535 1.323,59 -3.765,15.73 -8.641,33.45 -17.749,47 -24.748,36.81 -77.019,65.25 -117.251,82 v 1 h 638 V 666 c -16.01,6.724 -27.28,11.366 -45,11 v 406 l -298,-1 c -13.234,0.06 -25.388,1.89 -38,-3.9 -11.653,-5.35 -21.474,-15.8 -30,-25.1 -27.507,-30.02 -43.92,-72.91 -48.714,-113 -1.855,-15.505 1.62,-31.234 -0.713,-47 -5.391,-36.416 -15.012,-69.984 -10.287,-107 3.732,-29.244 11.097,-58.427 18.24,-87 3.476,-13.903 5.747,-29.987 11.798,-43 5.438,-11.694 16.035,-20.573 25.676,-28.725 5.577,-4.717 12.405,-8.381 13,-16.275 -2.775,-0.41 -5.327,-1.149 -8,-2 11.793,-22.67 41.586,-18.398 60,-30.749 23.886,-16.023 32.021,-41.14 48.884,-63.251 15.345,-20.12 41.4,-40.896 44.116,-68 -9.065,7.097 -13.755,20.107 -21.084,29 -15.439,18.735 -33.185,35.402 -50.916,51.911 -16.824,15.664 -35.538,30.601 -55,42.861 -14.725,9.276 -30.622,15.476 -42.961,28.232 C 746.657,627.311 734.31,668.067 718,703 c -5.938,-4.693 -7.664,-12.864 -9.21,-20 L 701,641 c -8.638,-45.202 -7.284,-91.944 -15.463,-137 -2.868,-15.801 -11.727,-29.566 -15.019,-45 -2.809,-13.171 0.461,-27.73 0.482,-41 0.009,-5.762 1.386,-12.705 -3,-17 z"
   fill="#6d9b3c"
   fill-rule="nonzero"
   opacity="1"
   stroke="none"
   id="path26" /><path
   d="m 932,507 c 34.309,14.266 83.66,36.012 119,12.899 9.45,-6.178 16.98,-14.723 23.41,-23.899 7.76,-11.075 13.06,-24.038 16.73,-37 1.01,-3.566 3.14,-14.301 3.14,-14.301 0,0 -8.34,-3.777 -11.28,-4.891 -9.14,-3.464 -18.47,-6.1 -28,-8.232 -42.15,-9.431 -75.389,6.338 -102.576,39.425 C 944.356,480.821 934.2,494.222 932,507 Z"
   fill="#6d9b3c"
   fill-rule="nonzero"
   opacity="1"
   stroke="none"
   id="path28"
   style="fill:#004cff;fill-opacity:1" /><path
   d="m 262,611 c 40.111,8.301 74.112,36.964 75,80 6.329,-9.419 9.94,-22.274 13.515,-33 10.441,-31.32 15.173,-65.634 -0.271,-96 -4.67,-9.181 -20.754,-33.023 -20.754,-33.023 0,0 -21.572,12.053 -26.49,16.107 -19.353,15.955 -38.73,39.88 -41,65.916 z"
   fill="#6d9b3c"
   fill-rule="nonzero"
   opacity="1"
   stroke="none"
   id="path30"
   style="fill:#e50000;fill-opacity:1" /><path
   d="m 976,537.465 c -13.137,2.364 -23.848,10.396 -34.001,18.32 -32.713,25.533 -54.375,77.056 -30.535,116.215 21.61,35.497 66.237,45.194 104.536,38.742 36.86,-6.21 54,-43.446 54,-77.742 0,-16.564 -0.17,-33.519 -7.16,-48.911 -14.43,-31.821 -51.57,-52.972 -86.84,-46.624 z"
   fill="#dda918"
   fill-rule="nonzero"
   opacity="1"
   stroke="none"
   id="path32" /><path
   d="m 525,732 c 12.571,-26.561 24.805,-62.185 19.536,-92 -4.449,-25.182 -23.837,-50.252 -42.536,-66.714 -10.26,-9.033 -21.133,-16.915 -33,-23.707 -3.482,-1.993 -13.725,-4.932 -13.725,-4.932 0,0 -5.484,8.185 -7.017,11.353 -5.767,11.922 -9.542,24.504 -13.682,37 -7.553,22.795 -12.116,51.983 -3.112,75 14.93,38.164 57.116,54.553 93.536,64 z"
   fill="#6d9b3c"
   fill-rule="nonzero"
   opacity="1"
   stroke="none"
   id="path34"
   style="fill:#dcdcdc;fill-opacity:1" /><path
   d="m 1146,545.425 c -15.95,2.171 -30.88,7.208 -44,16.733 -3.46,2.514 -11.66,10.857 -11.66,10.857 0,0 9.59,18.173 11.23,23.985 2.48,8.804 -0.26,27.152 -0.26,27.152 0,0 11.07,10.614 15.69,13.066 15.55,8.259 32.28,12.801 50,10.493 25.52,-3.325 50.19,-26.711 68,-43.75 4.11,-3.93 17.44,-21.012 17.44,-21.012 0,0 -18.18,-13.24 -23.44,-16.23 -24.2,-13.765 -54.61,-25.158 -83,-21.294 z"
   fill="#6d9b3c"
   fill-rule="nonzero"
   opacity="1"
   stroke="none"
   id="path36"
   style="fill:#770088;fill-opacity:1" /><path
   d="m 197,625 c -2.804,-9.534 -9.811,-18.063 -15.576,-26 C 162.412,572.831 134.75,551.766 102,547.845 c -10.3311,-1.237 -20.8068,-0.656 -31,1.579 -2.832,0.621 -10.9088,1.922 -10.9088,1.922 0,0 3.3212,29.619 5.0384,36.654 7.1982,29.491 22.0474,60.799 47.8704,78.329 6.442,4.374 27.529,14.729 27.529,14.729 0,0 9.257,-17.423 12.623,-22.058 10.429,-14.36 24.797,-32.336 43.848,-34 z"
   fill="#6d9b3c"
   fill-rule="nonzero"
   opacity="1"
   stroke="none"
   id="path38"
   style="fill:#b8f483;fill-opacity:1" /><path
   d="m 189.86,786.222 c 11.014,6.17 24.443,10.815 33.14,12.188 24.19,3.817 46.027,-0.163 68.015,-9.791 11.144,-4.88 21.655,-9.208 28.944,-19.748 21.745,-31.443 15.048,-62.716 -3.173,-94.041 -8.333,-14.325 -19.746,-29.067 -34.786,-36.849 -24.252,-12.549 -53.802,-8.348 -76,6.353 -9.209,6.099 -17.625,13.627 -24.061,22.666 -19.36,27.188 -29.848,61.464 -15.735,93.039 4.434,9.919 12.642,20.014 23.656,26.183 z"
   fill="#dda918"
   fill-rule="nonzero"
   opacity="1"
   stroke="none"
   id="path40" /><path
   d="m 899,672 c -28.069,0 -58.872,-2.803 -85,10.27 -23.7,11.858 -40.084,39.939 -49.6,63.73 -4.916,12.287 -8.323,24.944 -10.48,38 -0.619,3.747 -1.667,15.423 -1.667,15.423 0,0 12.324,1.517 15.747,1.574 l 36,0.007 c 11.002,-0.149 22.342,-1.903 33,-4.634 8.652,-2.216 17.34,-5.168 25,-9.834 40.222,-24.5 37.335,-74.091 37,-114.536 z"
   fill="#6d9b3c"
   fill-rule="nonzero"
   opacity="1"
   stroke="none"
   id="path42"
   style="fill:#9b59d0;fill-opacity:1" /><path
   d="m 88,679 v 448 l 404,-0.43 c 0,0 12.836,-8.86 18,-13.16 11.877,-9.88 27.606,-19.13 37,-31.41 H 133 V 707 c -18.004,-1.582 -31.048,-18.46 -45,-28 z"
   fill="#6d9b3c"
   fill-rule="nonzero"
   opacity="1"
   stroke="none"
   id="path44" /><path
   d="m 1105,817 c -2.07,-11.601 -10.59,-23.058 -16.6,-33 -25.32,-41.877 -64.13,-67.324 -112.4,-46.139 -9.329,4.094 -34.89,22.103 -34.89,22.103 0,0 3.281,8.033 5.094,11.036 5.835,9.669 11.922,19.228 19.057,28 7.59,9.332 16.07,18.827 26.739,24.687 33.95,18.644 79.95,7.073 113,-6.687 z"
   fill="#6d9b3c"
   fill-rule="nonzero"
   opacity="1"
   stroke="none"
   id="path46"
   style="fill:#2d2d2d;fill-opacity:1" /><path
   d="m 273,871 c 29.518,7.637 74.86,12.378 102,-4.468 23.632,-14.667 37.437,-51.076 41,-77.532 -25.476,-3.22 -53.853,-7.825 -79,-0.279 -25.181,7.557 -43.135,35.054 -54.247,57.279 -3.885,7.77 -8.41,16.352 -9.753,25 z"
   fill="#6d9b3c"
   fill-rule="nonzero"
   opacity="1"
   stroke="none"
   id="path48"
   style="fill:#fff433;fill-opacity:1" />
</svg>
